<svg id="Calque_1" data-name="Calque 1" xmlns="http://www.w3.org/2000/svg" viewBox="0 0 4000.08 521.07"><title>Darewise_logo_4096-01</title><path d="M771.47,481.86l-55.53,175H569.13L405.74,137h5.4c37.66,0,75.32.06,113-.1,4,0,5.79,1,7,4.91q27.84,89.43,56,178.77,22.78,72.48,45.68,144.94c3.14,10,6.23,20,9.69,31,4-12.37,7.69-23.67,11.28-35q16.9-53.44,33.74-106.92c7.25-23,14.57-45.9,21.73-68.89a10.25,10.25,0,0,0-.09-5.73q-20.42-65.4-41-130.74c-1.22-3.91-2.36-7.85-3.68-12.26H669q57.24,0,114.49-.07c3.28,0,4.91.67,6,4.14q25.83,82.76,52,165.42,29.13,92.68,58.21,185.4a5,5,0,0,0,2.1,2.83Q957.92,316,1014.12,137.2h123.63c-2.32,7.61-4.5,15-6.81,22.35q-31.21,99.09-62.45,198.16-27.54,87.45-55,174.92Q994.79,592.3,976.17,652c-1.17,3.78-2.68,5.14-6.84,5.12q-68.49-.27-137,0c-3.67,0-5-1.15-6.09-4.62q-23.93-76.82-48.19-153.54-2.68-8.54-5.36-17.06Z" transform="translate(1693.07 -136.48)"/><path d="M-515.86,442.93V657.14H-632.72V137h5.11c100.31,0,200.64-.94,300.93.35,60.33.78,105.39,29.75,134.25,82.94a138,138,0,0,1,16.79,71.54c-2.08,58.87-28.88,103.24-80.17,132.52a140.65,140.65,0,0,1-43,15.52c-.92.18-1.83.48-3.15.83a136.55,136.55,0,0,0,18.12,37.73c19.53,28.53,44.85,49.44,79,57.81,8.46,2.07,17.38,2.77,26.12,3.12,12.62.51,25.28.13,38.28.13V656.93c-.39.17-.69.42-1,.42-36.58.22-73.18,1.48-109-9-56.79-16.66-100.09-50-129.65-101.49-19.44-33.87-39.83-67.2-59.93-100.69-1-1.65-3.39-3.48-5.15-3.49-22.83-.23-45.66-.14-68.49-.12A16.47,16.47,0,0,0-515.86,442.93Zm.1-109.44h4.88q89.72,0,179.43-.08a28.33,28.33,0,0,0,9.7-1.87A44.49,44.49,0,0,0-293.07,285c-2.77-25.24-25.81-39.45-43.16-39.25-57.8.66-115.62.25-173.43.25h-6.1Z" transform="translate(1693.07 -136.48)"/><path d="M-1628.51,249.51c-7.57,0-14.52,0-21.46,0-10.24,0-13-2.18-16.07-12-8.63-27.75-17.11-55.55-26.07-83.2-3.63-11.17,3.54-17.55,12.52-17.52,90,.33,180,0,269.94.29,36.06.11,70.41,8.69,103.24,23.47a261.29,261.29,0,0,1,77.78,53.25c42,41.79,68.51,91.7,75.58,150.88,9.24,77.4-12,146.12-63.33,204.56-45,51.25-102.18,80.27-170.39,86.73-6.77.64-13.6,1-20.4,1q-104,.1-207.95,0c-9.79,0-13.38-3.66-13.38-13.61q0-193.2,0-386.41ZM-1511.26,544H-1492c24.32,0,48.64.09,73-.06a137,137,0,0,0,17.86-1.41c34.34-4.75,63.62-19.63,87.26-45,30.1-32.27,43.61-70.65,39.5-114.61-3.63-38.9-21.46-70.91-50.81-96.29-26.62-23-57.77-36-93.09-37-29.13-.8-58.3-.17-87.45-.15-1.76,0-3.52.17-5.48.28Z" transform="translate(1693.07 -136.48)"/><path d="M1982,531.49h7q151,0,302,0a32,32,0,0,1,6.43.46,11.51,11.51,0,0,1,9.59,11.64q.06,50.49,0,101c0,7.64-4.84,12.39-12.56,12.39h-418c-6.72,0-11-3.74-11.79-10.36a43.62,43.62,0,0,1-.15-5.49q0-244.24,0-488.48a39.54,39.54,0,0,1,.3-6c1-6.12,5.11-9.68,11.33-9.68q195.5,0,391,0c7.29,0,11.35,4.12,11.36,11.55q.06,42.51,0,85c0,7.13-4.34,11.3-11.61,11.42-4.34.07-8.67,0-13,0H1981.76v89h216.47c12.25,0,14.77,2.55,14.77,14.94v81c0,9.3-3.23,12.56-12.56,12.56H1982Z" transform="translate(1693.07 -136.48)"/><path d="M43.21,245v89h217c11.11,0,14.29,3.15,14.29,14.22q0,40.5,0,81c0,9.7-3.57,13.29-13.18,13.29H43.26v89H351.7c12.52,0,16.8,4.27,16.81,16.75q0,46.25,0,92.48c0,12.23-4,16.28-16,16.28H-60.44C-70.59,657-74,653.63-74,643.6V150.17c0-9.68,3.52-13.17,13.29-13.17H326.23c9.6,0,13.75,4.06,13.76,13.55q0,40.24,0,80.49c0,9.82-4.17,14-13.93,14H43.21Z" transform="translate(1693.07 -136.48)"/><path d="M1397,547h6.32q128,0,256,0c22.33,0,40-12.9,44.75-32.57,6-25.07-10.4-49.51-36.13-52.81-31.14-4-62.35-7.41-93.53-11.1-26.55-3.15-53.22-5.56-79.62-9.73C1466,436.24,1441,423,1419.5,403.22c-29.61-27.27-46.31-61.14-49.27-101.08-3.31-44.61,10.09-84,40.91-116.91s68.94-48.77,113.9-48.75q128.49.06,257,0h6.69V247H1527c-13,0-24.55,3.41-33.85,13.07-11.78,12.23-15.6,26.53-10.52,42.65,5.14,16.28,16.5,26.65,33.38,29.22,21.34,3.24,42.85,5.31,64.29,7.82,32,3.76,64,7.76,96,11.09,33.32,3.46,62.89,15.51,87.79,37.88,33.49,30.07,51.42,67.74,51.78,113,.43,54.83-22.66,98-67.19,129.39a141.83,141.83,0,0,1-82.86,26.3c-87.33.22-174.66.08-262,.08H1397Z" transform="translate(1693.07 -136.48)"/><path d="M-828.53,572h-4.68q-81.48,0-163-.09c-3.86,0-5.4,1.14-6.52,4.82-7.26,23.83-14.79,47.58-22.26,71.34-2,6.36-5.48,8.92-12.1,8.92q-48.73,0-97.48,0c-9.85,0-15-6.83-12-16.21,6.67-21.23,13.48-42.42,20.14-63.65q28.35-90.32,56.64-180.64c10.45-33.27,21-66.5,31.5-99.77q22.83-72.72,45.57-145.47a76.24,76.24,0,0,1,2.85-8c1.76-4,4.9-6.27,9.35-6.27q65.73,0,131.47,0c5.68,0,8.66,3.5,10.25,8.53q10.65,33.73,21.3,67.46,18.56,58.92,37.09,117.85Q-753.67,415.94-727,501q17.25,54.9,34.56,109.77c3.29,10.45,6.63,20.9,9.66,31.43,2.36,8.22-2.66,14.74-11.15,14.75q-49.49.07-99,0c-6.49,0-9.78-2.75-12-9.78l-22.8-72.74C-827.87,573.83-828.11,573.21-828.53,572Zm-34.14-108.89C-880,408.07-897.1,353.54-914.23,299l-1-.1-51.59,164.19Z" transform="translate(1693.07 -136.48)"/><path d="M1193.49,397V150.55c0-9.6,4-13.54,13.63-13.55h93.47c9.22,0,13.34,3.91,13.89,13.15.09,1.49,0,3,0,4.49V642c-.1,11.79-3.83,15.53-15.51,15.54h-91c-11,0-14.54-3.53-14.54-14.62Z" transform="translate(1693.07 -136.48)"/></svg>